<svg xmlns="http://www.w3.org/2000/svg" viewBox="0 0 64 64" fill="none" x="0px" y="0px"><path fill-rule="evenodd" clip-rule="evenodd" d="M55 24.0626V22C55 16.4772 50.5229 12 45 12H32C31.3705 12 30.7777 11.7036 30.4 11.2L28 8C26.1115 5.48194 23.1476 4 20 4H12C6.47715 4 2 8.47715 2 14V46C2 53.732 8.26801 60 16 60H47.7176C52.3602 60 56.3921 56.8048 57.453 52.2852L61.7859 33.8262C62.8866 29.1369 59.6329 24.6407 55 24.0626ZM12 8C8.68629 8 6 10.6863 6 14V46C6 50.9934 9.65982 55.1319 14.4434 55.8796L20.4772 30.1738C21.3266 26.5553 24.5578 24 28.2748 24H51V22C51 18.6863 48.3137 16 45 16H32C30.1115 16 28.3331 15.1108 27.2 13.6L24.8 10.4C23.6669 8.88916 21.8885 8 20 8H12Z" fill="black"/></svg>