<svg xmlns="http://www.w3.org/2000/svg" version="1.1" viewBox="2.5 2.0 95.0 95.5">
 <path d="m3.1016 96.969c0.26563 0.22656 0.63281 0.29297 0.96094 0.16406l10.613-4.1016-7.7266-7.7266-4.1055 10.609h-0.003906c-0.14062 0.37109-0.039063 0.79297 0.26172 1.0547zm13.5-4.6797 9.8398-3.7969h-0.003906c0.125-0.046876 0.23828-0.12109 0.33203-0.21094l70.176-70.141c0.17578-0.17578 0.27734-0.41797 0.27734-0.66797s-0.10156-0.48828-0.27734-0.66797l-13.727-13.727c-0.17969-0.17578-0.41797-0.27734-0.66797-0.27734s-0.49219 0.10156-0.66797 0.27734l-70.18 70.137c-0.09375 0.09375-0.16406 0.20703-0.21094 0.33203l-3.7969 9.8359z"/>
</svg>