<svg xmlns="http://www.w3.org/2000/svg" xmlns:xlink="http://www.w3.org/1999/xlink" version="1.1" x="0px" y="0px" viewBox="0 0 512 512" style="enable-background:new 0 0 512 512;stroke:white;stroke-width:3;" xml:space="preserve">
    <path d="M256,130.999c-68.926,0-125,56.075-125,125s56.074,125,125,125c68.925,0,125-56.075,125-125      S324.925,130.999,256,130.999z M256,323.173c-37.04,0-67.174-30.134-67.174-67.174c0-37.039,30.134-67.174,67.174-67.174      s67.174,30.135,67.174,67.174C323.174,293.039,293.04,323.173,256,323.173z"/>
    <path d="M219,59.999l32-24v60c0,2.762,2.238,5,5,5s5-2.238,5-5v-60l32,24c0.899,0.675,1.952,1.001,2.996,1.001      c1.521,0,3.021-0.691,4.004-2.001c1.657-2.209,1.209-5.343-1-7l-40-30c-0.021-0.015-0.043-0.023-0.063-0.038      c-0.221-0.16-0.451-0.31-0.7-0.434c-0.02-0.01-0.04-0.016-0.06-0.025c-0.061-0.029-0.122-0.049-0.183-0.075      c-0.215-0.094-0.433-0.172-0.655-0.233c-0.082-0.023-0.163-0.046-0.245-0.064c-0.271-0.061-0.546-0.105-0.821-0.12      c-0.009-0.001-0.017-0.003-0.025-0.003c-0.29-0.015-0.579,0.004-0.866,0.04c-0.07,0.009-0.139,0.021-0.208,0.033      c-0.233,0.039-0.463,0.095-0.689,0.167c-0.058,0.019-0.115,0.032-0.173,0.053c-0.268,0.096-0.529,0.215-0.78,0.357      c-0.057,0.032-0.109,0.072-0.166,0.107c-0.122,0.076-0.247,0.147-0.364,0.235l-40,30c-2.209,1.657-2.657,4.791-1,7      C213.656,61.208,216.79,61.656,219,59.999z"/>
    <path d="M293,451.999l-32,24v-60c0-2.762-2.238-5-5-5s-5,2.238-5,5v60l-32-24c-2.209-1.657-5.344-1.209-7,1      c-1.657,2.209-1.209,5.343,1,7l40,30c0.027,0.021,0.059,0.034,0.086,0.055c0.168,0.12,0.342,0.229,0.521,0.328      c0.042,0.022,0.082,0.048,0.124,0.069c0.214,0.109,0.434,0.202,0.659,0.278c0.052,0.018,0.104,0.029,0.155,0.046      c0.181,0.054,0.362,0.099,0.548,0.133c0.067,0.013,0.135,0.025,0.203,0.035c0.23,0.032,0.463,0.055,0.697,0.055      c0.002,0,0.004,0.001,0.007,0.001c0.001,0,0.001,0,0.001,0c0.001,0,0.002,0,0.002,0c0.003,0,0.005-0.001,0.008-0.001      c0.229,0,0.457-0.021,0.685-0.054c0.073-0.01,0.145-0.023,0.217-0.037c0.168-0.031,0.334-0.072,0.499-0.12      c0.07-0.021,0.14-0.038,0.208-0.063c0.209-0.071,0.415-0.153,0.616-0.254c0.009-0.005,0.017-0.011,0.025-0.015      c0.07-0.036,0.137-0.083,0.206-0.122c0.158-0.09,0.313-0.183,0.458-0.288c0.023-0.018,0.051-0.029,0.074-0.047l40-30      c2.209-1.657,2.657-4.791,1-7S295.209,450.342,293,451.999z"/>
    <path d="M365.896,146.397c0.976,0.977,2.256,1.465,3.535,1.465s2.56-0.488,3.535-1.465l42.426-42.426l5.657,39.598      c0.356,2.494,2.496,4.293,4.944,4.293c0.235,0,0.474-0.017,0.713-0.051c2.733-0.391,4.633-2.923,4.243-5.656l-7.071-49.498      c-0.004-0.025-0.015-0.049-0.019-0.074c-0.043-0.269-0.101-0.536-0.188-0.8c-0.007-0.02-0.017-0.037-0.023-0.057      c-0.023-0.066-0.054-0.127-0.079-0.192c-0.085-0.216-0.184-0.423-0.296-0.622c-0.042-0.073-0.083-0.146-0.128-0.217      c-0.312-0.492-0.703-0.922-1.158-1.275c-0.053-0.04-0.106-0.077-0.161-0.116c-0.197-0.141-0.403-0.267-0.619-0.378      c-0.051-0.025-0.098-0.055-0.148-0.079c-0.259-0.122-0.527-0.223-0.808-0.3c-0.064-0.018-0.132-0.026-0.197-0.042      c-0.139-0.032-0.275-0.069-0.418-0.09l-49.497-7.071c-2.732-0.393-5.267,1.509-5.657,4.243c-0.39,2.733,1.51,5.266,4.243,5.656      l39.598,5.657l-42.426,42.426C363.943,141.279,363.943,144.445,365.896,146.397z"/>
    <path d="M146.692,365.601c-1.953-1.953-5.118-1.953-7.071,0l-42.426,42.427l-5.657-39.599c-0.391-2.734-2.924-4.636-5.656-4.243      c-2.734,0.391-4.634,2.924-4.243,5.657l7.071,49.498c0.02,0.141,0.057,0.274,0.088,0.411c0.017,0.07,0.026,0.143,0.046,0.212      c0.076,0.274,0.175,0.538,0.294,0.792c0.029,0.063,0.065,0.122,0.098,0.184c0.104,0.2,0.222,0.392,0.352,0.575      c0.046,0.065,0.09,0.13,0.139,0.192c0.175,0.224,0.362,0.437,0.572,0.628c0.018,0.016,0.036,0.027,0.054,0.042      c0.195,0.173,0.408,0.327,0.631,0.469c0.076,0.049,0.154,0.094,0.234,0.139c0.193,0.108,0.396,0.203,0.604,0.286      c0.068,0.027,0.133,0.06,0.202,0.084c0.02,0.007,0.036,0.017,0.055,0.022c0.274,0.092,0.554,0.154,0.834,0.197      c0.014,0.002,0.026,0.008,0.04,0.01l49.498,7.071c0.239,0.034,0.478,0.051,0.713,0.051c2.448,0,4.587-1.8,4.943-4.294      c0.391-2.733-1.509-5.267-4.242-5.657l-39.599-5.657l42.427-42.427C148.646,370.719,148.646,367.553,146.692,365.601z"/>
    <path d="M490.954,255.389c-0.009-0.077-0.023-0.152-0.036-0.229c-0.038-0.224-0.092-0.444-0.16-0.662      c-0.021-0.064-0.036-0.129-0.059-0.192c-0.096-0.266-0.213-0.523-0.354-0.771c-0.034-0.062-0.077-0.117-0.114-0.177      c-0.075-0.12-0.145-0.243-0.23-0.357l-30-40c-1.657-2.209-4.791-2.656-7-1c-2.209,1.657-2.657,4.791-1,7l24,32h-60      c-2.762,0-5,2.238-5,5s2.238,5,5,5h60l-24,32c-1.657,2.209-1.209,5.343,1,7c0.899,0.675,1.952,1,2.996,1      c1.521,0,3.021-0.69,4.004-2l30-40c0.016-0.021,0.024-0.044,0.039-0.064c0.16-0.221,0.309-0.451,0.433-0.699      c0.009-0.019,0.015-0.038,0.023-0.057c0.031-0.064,0.054-0.132,0.082-0.197c0.09-0.208,0.166-0.42,0.227-0.635      c0.024-0.087,0.048-0.174,0.067-0.262c0.058-0.259,0.1-0.52,0.115-0.782c0.002-0.021,0.007-0.041,0.008-0.063      C491.008,255.956,490.989,255.672,490.954,255.389z"/>
    <path d="M36,260.999h60c2.761,0,5-2.238,5-5s-2.239-5-5-5H36l24-32c1.656-2.209,1.209-5.343-1-7c-2.21-1.656-5.343-1.209-7,1      l-30,40c-0.086,0.114-0.155,0.237-0.23,0.357c-0.037,0.06-0.08,0.115-0.114,0.177c-0.142,0.248-0.259,0.506-0.354,0.771      c-0.023,0.064-0.039,0.13-0.06,0.194c-0.068,0.218-0.122,0.438-0.16,0.661c-0.013,0.077-0.026,0.152-0.036,0.229      c-0.035,0.283-0.054,0.567-0.04,0.853c0.001,0.019,0.006,0.036,0.007,0.055c0.016,0.267,0.058,0.53,0.116,0.793      c0.02,0.085,0.042,0.169,0.066,0.254c0.062,0.22,0.139,0.436,0.23,0.648c0.027,0.062,0.048,0.124,0.077,0.185      c0.01,0.02,0.015,0.04,0.024,0.06c0.125,0.249,0.273,0.479,0.435,0.7c0.015,0.021,0.022,0.043,0.038,0.063l30,40      c0.982,1.31,2.483,2,4.004,2c1.044,0,2.097-0.325,2.996-1c2.209-1.657,2.656-4.791,1-7L36,260.999z"/>
    <path d="M426.707,364.186c-2.745-0.394-5.267,1.509-5.657,4.243l-5.656,39.599l-42.427-42.427c-1.951-1.953-5.119-1.953-7.07,0      c-1.953,1.952-1.953,5.118,0,7.07l42.426,42.427l-39.598,5.657c-2.733,0.391-4.633,2.924-4.243,5.657      c0.356,2.494,2.496,4.294,4.944,4.294c0.235,0,0.474-0.017,0.713-0.051l49.497-7.071c0.014-0.002,0.026-0.008,0.04-0.01      c0.28-0.043,0.56-0.105,0.834-0.197c0.019-0.007,0.036-0.017,0.055-0.022c0.069-0.024,0.133-0.057,0.201-0.083      c0.21-0.083,0.412-0.179,0.606-0.288c0.079-0.045,0.157-0.089,0.233-0.137c0.224-0.143,0.438-0.298,0.635-0.473      c0.016-0.014,0.033-0.024,0.049-0.038c0.211-0.191,0.398-0.406,0.574-0.63c0.048-0.062,0.092-0.126,0.137-0.189      c0.131-0.185,0.249-0.378,0.354-0.58c0.032-0.061,0.067-0.117,0.096-0.179c0.12-0.255,0.22-0.521,0.296-0.796      c0.019-0.066,0.028-0.136,0.044-0.204c0.032-0.139,0.069-0.274,0.09-0.417l7.071-49.498      C431.34,367.109,429.44,364.576,426.707,364.186z"/>
    <path d="M85.882,147.812c0.239,0.034,0.478,0.051,0.713,0.051c2.448,0,4.588-1.8,4.943-4.293l5.657-39.598l42.426,42.426      c0.977,0.977,2.256,1.465,3.536,1.465c1.279,0,2.559-0.488,3.535-1.465c1.953-1.952,1.953-5.118,0-7.071L104.266,96.9      l39.599-5.657c2.733-0.391,4.633-2.923,4.242-5.656c-0.391-2.734-2.925-4.634-5.656-4.243l-49.498,7.071      c-0.144,0.021-0.281,0.058-0.422,0.091c-0.064,0.015-0.131,0.024-0.195,0.042c-0.278,0.076-0.546,0.177-0.804,0.298      c-0.055,0.026-0.105,0.058-0.16,0.086c-0.21,0.108-0.411,0.23-0.603,0.367c-0.059,0.042-0.117,0.082-0.174,0.126      c-0.229,0.178-0.445,0.368-0.64,0.583c-0.007,0.007-0.013,0.017-0.02,0.024c-0.183,0.203-0.343,0.427-0.491,0.659      c-0.046,0.073-0.089,0.148-0.132,0.225c-0.111,0.198-0.209,0.404-0.293,0.618c-0.026,0.065-0.057,0.126-0.079,0.191      c-0.007,0.021-0.018,0.038-0.024,0.058c-0.088,0.265-0.146,0.532-0.188,0.802c-0.004,0.025-0.015,0.047-0.018,0.072      l-7.071,49.498C81.248,144.889,83.147,147.421,85.882,147.812z"/>
</svg>