<svg xmlns="http://www.w3.org/2000/svg" version="1.1" viewBox="-5.0 -10.0 110.0 135.0">
 <path d="m20.32 24.012v2.1484c0 0.62109 0.5 1.1211 1.1211 1.1211h57.121c0.62109 0 1.1211-0.5 1.1211-1.1211v-2.1484c0-0.60938-0.5-1.1094-1.1211-1.1094l-57.121-0.003906c-0.62109 0-1.1211 0.5-1.1211 1.1094z"/>
 <path d="m30.801 90h38.398c1.1602 0 2.1211-0.89844 2.1914-2.0703l3.2812-57.539h-49.352l3.2812 57.539c0.070313 1.1602 1.0312 2.0703 2.1914 2.0703zm26.148-46.98c0.019531-0.85156 0.71094-1.5312 1.5586-1.5312h0.03125c0.85938 0.011719 1.5508 0.73047 1.5312 1.5781l-0.66016 34.309c-0.011718 0.85156-0.71094 1.5312-1.5508 1.5312h-0.03125c-0.85938-0.011719-1.5508-0.73047-1.5391-1.5898l0.66016-34.301zm-15.488-1.5312h0.03125c0.85156 0 1.5391 0.67969 1.5586 1.5312l0.66016 34.301c0.011718 0.85938-0.67969 1.5781-1.5391 1.5898h-0.03125c-0.83984 0-1.5391-0.67969-1.5508-1.5312l-0.66016-34.309c-0.019532-0.85156 0.66016-1.5703 1.5312-1.5781z"/>
 <path d="m62.949 19.781v-4.4688c0-2.9297-2.3789-5.3086-5.3086-5.3086h-15.27c-2.9297 0-5.3086 2.3789-5.3086 5.3086v4.4688h3.1211v-4.4688c0-1.2109 0.98828-2.1914 2.1914-2.1914h15.27c1.2109 0 2.1914 0.98828 2.1914 2.1914v4.4688h3.1211z"/>
<text x="0.0" y="117.5" font-size="5.0" font-weight="bold" font-family="Arbeit Regular, Helvetica, Arial-Unicode, Arial, Sans-serif" fill="#000000">Created by Kosong Tujuh</text><text x="0.0" y="122.5" font-size="5.0" font-weight="bold" font-family="Arbeit Regular, Helvetica, Arial-Unicode, Arial, Sans-serif" fill="#000000">from Noun Project</text></svg>